<svg width="148" height="52" viewBox="0 0 148 52" fill="none" xmlns="http://www.w3.org/2000/svg">
<path d="M135.578 0H12.4292C11.9511 0 11.4788 0 11.0021 0.002535C10.603 0.005083 10.2071 0.012701 9.80418 0.019045C8.93663 0.040625 8.05824 0.093951 7.19195 0.248833C6.3193 0.401167 5.50838 0.661427 4.71401 1.06387C3.93365 1.4625 3.22074 1.98047 2.60398 2.59619C1.98019 3.21191 1.46335 3.92539 1.06808 4.70361C0.66262 5.49453 0.405477 6.30703 0.25335 7.17792C0.0961256 8.03867 0.0420272 8.90958 0.0197492 9.78047C0.00765198 10.1791 0.00637448 10.579 0 10.9776C0 11.4486 0 11.9209 0 12.397V39.6042C0 40.0842 0 40.5539 0 41.0262C0.00637448 41.4298 0.00765198 41.8209 0.0197492 42.2246C0.0420272 43.0955 0.0961256 43.9664 0.25335 44.8271C0.405477 45.698 0.662633 46.5144 1.06808 47.3027C1.46335 48.0771 1.98019 48.7907 2.60398 49.4013C3.22074 50.022 3.93365 50.5388 4.71401 50.9336C5.50838 51.3399 6.3193 51.5963 7.19195 51.7537C8.05824 51.9086 8.93663 51.9594 9.80418 51.9835C10.2071 51.9923 10.603 51.9974 11.0021 51.9974C11.4788 52 11.9511 52 12.4292 52H135.578C136.046 52 136.522 52 136.991 51.9974C137.388 51.9974 137.796 51.9923 138.193 51.9835C139.066 51.9594 139.942 51.9086 140.8 51.7537C141.673 51.5963 142.485 51.3399 143.287 50.9336C144.066 50.5388 144.779 50.022 145.395 49.4013C146.017 48.7907 146.533 48.0771 146.936 47.3027C147.335 46.5144 147.595 45.698 147.743 44.8271C147.903 43.9664 147.954 43.0955 147.985 42.2246C147.99 41.8209 147.99 41.4298 147.99 41.0262C148 40.5539 148 40.0842 148 39.6042V12.397C148 11.9209 148 11.4486 147.99 10.9776C147.99 10.579 147.99 10.1791 147.985 9.78047C147.954 8.90958 147.903 8.03867 147.743 7.17792C147.595 6.30703 147.335 5.49453 146.936 4.70361C146.533 3.92539 146.017 3.21191 145.395 2.59619C144.779 1.98047 144.066 1.4625 143.287 1.06387C142.485 0.661427 141.673 0.401167 140.8 0.248833C139.942 0.093951 139.066 0.040625 138.193 0.019045C137.796 0.012701 137.388 0.005083 136.991 0.002548C136.522 0 136.046 0 135.578 0Z" fill="#A6A6A6"/>
<path d="M11.0081 50.8624C10.6109 50.8624 10.2232 50.8574 9.82925 50.8485C9.10045 50.8281 8.23606 50.7876 7.39269 50.6365C6.59705 50.493 5.88988 50.2594 5.233 49.9242C4.5532 49.5803 3.94215 49.1359 3.41195 48.6027C2.87218 48.0746 2.42853 47.4678 2.08164 46.7872C1.74365 46.131 1.51259 45.4264 1.37382 44.6329C1.21471 43.7582 1.17397 42.8707 1.15678 42.1954C1.14852 41.9212 1.1377 41.0083 1.1377 41.0083V10.9776C1.1377 10.9776 1.14915 10.0788 1.15678 9.81469C1.17397 9.13359 1.21471 8.24683 1.37256 7.381C1.51196 6.5831 1.743 5.87915 2.081 5.22027C2.42724 4.53852 2.87155 3.92851 3.40431 3.40294C3.94343 2.86464 4.55702 2.41904 5.23237 2.07372C5.90197 1.73476 6.60787 1.50308 7.38759 1.3666C8.26534 1.20981 9.15519 1.17046 9.83243 1.15332L11.0087 1.13745H136.984L138.174 1.15396C138.843 1.17047 139.733 1.20982 140.597 1.36533C141.382 1.50244 142.093 1.7354 142.775 2.07753C143.443 2.41904 144.056 2.86464 144.589 3.39785C145.123 3.92598 145.569 4.53916 145.923 5.22344C146.259 5.88804 146.488 6.59199 146.621 7.36704C146.772 8.18716 146.819 9.02949 146.847 9.82041C146.851 10.1886 146.851 10.584 146.851 10.9776C146.862 11.4651 146.862 11.9291 146.862 12.3969V39.6042C146.862 40.0765 146.862 40.5373 146.851 41.0019C146.851 41.4247 146.851 41.812 146.846 42.2106C146.819 42.9761 146.772 43.8179 146.623 44.6201C146.488 45.4174 146.259 46.122 145.919 46.7911C145.568 47.4665 145.121 48.0771 144.596 48.5925C144.057 49.1359 143.446 49.579 142.771 49.9218C142.095 50.2645 141.405 50.4917 140.597 50.6365C139.762 50.7876 138.898 50.8281 138.16 50.8485C137.779 50.8574 137.379 50.8624 136.991 50.8624L135.577 50.865L11.0081 50.8624Z" fill="black"/>
<path d="M53.915 19.3432C51.7101 19.3432 50.3193 17.7791 50.3193 15.2744C50.3193 12.8013 51.7267 11.21 53.9042 11.21C55.6724 11.21 56.955 12.2097 57.2191 13.7795H56.0066C55.7042 12.8445 54.9659 12.3335 53.9042 12.3335C52.465 12.3335 51.5542 13.4678 51.5542 15.2636C51.5542 17.0911 52.4701 18.2197 53.9309 18.2197C55.2033 18.2197 56.0766 17.4459 56.0874 16.2957V16.1288H54.0818V15.1182H57.2732V16.0856C57.2732 18.0692 55.9525 19.3432 53.915 19.3432Z" fill="white"/>
<path d="M63.9266 17.575C63.6624 18.6236 62.7242 19.2685 61.3824 19.2685C59.7001 19.2685 58.6709 18.1183 58.6709 16.247C58.6709 14.3764 59.7218 13.1887 61.3767 13.1887C63.01 13.1887 63.9966 14.3015 63.9966 16.1397V16.5428H59.851V16.6076C59.8892 17.634 60.4875 18.2846 61.4143 18.2846C62.1151 18.2846 62.595 18.032 62.8108 17.5749H63.9266V17.575ZM59.851 15.6884H62.8158C62.7891 14.7693 62.2284 14.172 61.3716 14.172C60.5142 14.172 59.9159 14.7744 59.851 15.6884Z" fill="white"/>
<path d="M67.1209 11.8443V13.3283H68.3926V14.3014H67.1209V17.3115C67.1209 17.9247 67.3742 18.1932 67.9509 18.1932C68.1285 18.1932 68.2309 18.1824 68.3926 18.1665V19.1288C68.2042 19.1605 67.9884 19.1878 67.7618 19.1878C66.4735 19.1878 65.9618 18.7359 65.9618 17.6073V14.3014H65.0293V13.3283H65.9618V11.8442H67.1209V11.8443Z" fill="white"/>
<path d="M72.9521 11.5705C72.9521 11.1668 73.2704 10.8608 73.7013 10.8608C74.1329 10.8608 74.4505 11.1668 74.4505 11.5705C74.4505 11.9679 74.1329 12.2745 73.7013 12.2745C73.2704 12.2745 72.9521 11.9679 72.9521 11.5705ZM73.1246 13.3015H74.278V19.1553H73.1246V13.3015Z" fill="white"/>
<path d="M77.7156 11.8443V13.3283H78.9874V14.3014H77.7156V17.3115C77.7156 17.9247 77.9689 18.1932 78.5456 18.1932C78.7238 18.1932 78.8257 18.1824 78.9874 18.1665V19.1288C78.7989 19.1605 78.5838 19.1878 78.3572 19.1878C77.0689 19.1878 76.5571 18.7359 76.5571 17.6073V14.3014H75.624V13.3283H76.5571V11.8442H77.7156V11.8443Z" fill="white"/>
<path d="M83.4082 16.2261C83.4082 14.3389 84.4648 13.1887 86.1796 13.1887C87.888 13.1887 88.9446 14.3389 88.9446 16.2261C88.9446 18.1234 87.8931 19.2685 86.1796 19.2685C84.4597 19.2685 83.4082 18.1234 83.4082 16.2261ZM87.753 16.2261C87.753 14.9572 87.1814 14.2151 86.1796 14.2151C85.1713 14.2151 84.6048 14.9572 84.6048 16.2261C84.6048 17.5051 85.1713 18.2415 86.1796 18.2415C87.1814 18.2415 87.753 17.5001 87.753 16.2261Z" fill="white"/>
<path d="M90.499 13.3017H91.6142V14.2316H91.7008C91.9872 13.581 92.569 13.1887 93.4524 13.1887C94.7624 13.1887 95.4855 13.9733 95.4855 15.366V19.1555H94.3257V15.6561C94.3257 14.7153 93.9158 14.2475 93.0591 14.2475C92.2023 14.2475 91.6575 14.8175 91.6575 15.7309V19.1555H90.499V13.3017Z" fill="white"/>
<path d="M60.0108 36.1697H53.8404L52.3586 40.5331H49.7451L55.5896 24.3884H58.3049L64.1494 40.5331H61.4913L60.0108 36.1697ZM54.4795 34.1562H59.3704L56.9593 27.0747H56.8918L54.4795 34.1562Z" fill="white"/>
<path d="M76.7726 34.649C76.7726 38.3738 74.8096 40.7351 71.8473 40.7351C70.1541 40.7351 68.8073 39.9074 68.1351 38.5972H68.0778V44.4269H65.6553V28.7634H68.0002V30.7896H68.0447C68.7398 29.435 70.0981 28.573 71.8027 28.573C74.7981 28.573 76.7726 30.9229 76.7726 34.649ZM74.2826 34.649C74.2826 32.1874 73.0821 30.6093 71.1637 30.6093C69.3127 30.6093 68.0677 32.2216 68.0677 34.649C68.0677 37.0992 69.3012 38.6874 71.1637 38.6874C73.0821 38.6874 74.2826 37.1208 74.2826 34.649Z" fill="white"/>
<path d="M89.7628 34.649C89.7628 38.3738 87.7998 40.7351 84.8375 40.7351C83.1444 40.7351 81.7975 39.9074 81.1254 38.5972H81.0681V44.4269H78.6455V28.7634H80.9904V30.7896H81.035C81.73 29.435 83.0884 28.573 84.7929 28.573C87.7884 28.573 89.7628 30.9229 89.7628 34.649ZM87.2728 34.649C87.2728 32.1874 86.0723 30.6093 84.1539 30.6093C82.3029 30.6093 81.0579 32.2216 81.0579 34.649C81.0579 37.0992 82.2914 38.6874 84.1539 38.6874C86.0723 38.6874 87.2728 37.1208 87.2728 34.649Z" fill="white"/>
<path d="M91.7256 24.3884H94.1494V40.5331H91.7256V24.3884Z" fill="white"/>
<path d="M106.763 37.0762C106.426 39.2242 104.385 40.7565 101.682 40.7565C98.2151 40.7565 96.1172 38.4193 96.1172 34.7047C96.1172 31.0129 98.2482 28.5513 101.58 28.5513C104.856 28.5513 106.898 30.8555 106.898 34.4254V35.2531H98.5627V35.3978C98.5627 37.4456 99.7962 38.7989 101.738 38.7989C103.118 38.7989 104.139 38.1045 104.463 37.0762H106.763V37.0762ZM98.5741 33.5634H104.475C104.419 31.7619 103.274 30.4975 101.58 30.4975C99.8866 30.4975 98.6976 31.7848 98.5741 33.5634Z" fill="white"/>
<path d="M116.254 40.5331V26.5492H111.296V24.3884H123.714V26.5492H118.767V40.5331H116.254Z" fill="white"/>
<path d="M130.461 40.5331L124.683 24.3884H127.409L131.818 37.7134H131.885L136.305 24.3884H138.986L133.209 40.5331H130.461Z" fill="white"/>
<path d="M27.8249 9.66187H24.5369L20.038 9.66203C19.9797 9.66203 19.9214 9.66203 19.8631 9.66203C19.5296 9.66203 19.1963 9.66218 18.8629 9.6642C18.533 9.66622 18.2031 9.67004 17.8732 9.67889C17.1545 9.69829 16.4295 9.74055 15.7187 9.86802C14.9977 9.9973 14.3266 10.2084 13.6715 10.5411C13.0276 10.8681 12.4384 11.2953 11.9275 11.805C11.4167 12.3146 10.9885 12.9023 10.6607 13.5447C10.327 14.1986 10.1154 14.8684 9.98574 15.5882C9.8581 16.297 9.81578 17.0201 9.79636 17.7368C9.78746 18.0659 9.78365 18.395 9.78164 18.7241C9.77924 19.1149 9.77941 19.5056 9.77941 19.8964L9.7793 24.3848V27.6521L9.77944 32.1405C9.77944 32.5313 9.77927 32.922 9.78164 33.3128C9.78365 33.642 9.78746 33.971 9.79639 34.3001C9.81578 35.0172 9.85815 35.7404 9.98593 36.4495C10.1155 37.1689 10.3271 37.8384 10.6605 38.492C10.9884 39.1344 11.4166 39.7222 11.9275 40.2319C12.4383 40.7415 13.0274 41.1687 13.6712 41.4957C14.3267 41.8286 14.9981 42.0398 15.7196 42.1691C16.4301 42.2964 17.1548 42.3387 17.8732 42.358C18.2031 42.3669 18.533 42.3707 18.8629 42.3727C19.2054 42.3748 19.5479 42.3749 19.8904 42.3749C19.9396 42.3749 19.9888 42.3749 20.038 42.3749L24.5369 42.3751H27.8249L32.3238 42.3749C32.3795 42.3749 32.4352 42.3749 32.4909 42.3749C32.8269 42.3749 33.1629 42.3747 33.4989 42.3727C33.8288 42.3707 34.1587 42.3669 34.4885 42.358C35.2072 42.3386 35.9322 42.2964 36.643 42.1689C37.364 42.0396 38.0352 41.8286 38.6902 41.4959C39.3342 41.1688 39.9234 40.7416 40.4343 40.2319C40.9451 39.7223 41.3733 39.1346 41.7011 38.4923C42.0347 37.8384 42.2464 37.1685 42.376 36.4487C42.5036 35.7399 42.546 35.0169 42.5654 34.3001C42.5743 33.971 42.5781 33.6419 42.5801 33.3128C42.5825 32.922 42.5823 32.5313 42.5823 32.1405L42.5824 27.6521V24.3848L42.5823 19.8964C42.5823 19.5056 42.5825 19.1149 42.5801 18.7241C42.5781 18.395 42.5743 18.0659 42.5653 17.7368C42.546 17.0197 42.5036 16.2965 42.3758 15.5874C42.2462 14.868 42.0347 14.1985 41.7012 13.5449C41.3734 12.9025 40.9451 12.3147 40.4343 11.805C39.9234 11.2954 39.3343 10.8682 38.6905 10.5412C38.0351 10.2083 37.3636 9.99713 36.6422 9.86782C35.9317 9.74049 35.2069 9.69825 34.4885 9.67888C34.1586 9.66999 33.8287 9.66621 33.4988 9.66419C33.1559 9.66211 32.8129 9.66198 32.47 9.66198C32.4212 9.66198 32.3725 9.66199 32.3238 9.66199L27.8249 9.66187Z" fill="#C8C8C8"/>
<path d="M27.8252 10.2471L32.3241 10.2472H32.4703L33.4955 10.2494C33.8214 10.2514 34.1472 10.2551 34.473 10.2639C35.091 10.2805 35.8198 10.315 36.5387 10.4438C37.2328 10.5682 37.8497 10.7707 38.4246 11.0627C39.0144 11.3623 39.5511 11.7512 40.0197 12.2188C40.4884 12.6864 40.8784 13.2219 41.1787 13.8104C41.4713 14.3839 41.6741 14.999 41.7988 15.691C41.9281 16.4089 41.9626 17.1361 41.9793 17.7529C41.9881 18.0778 41.9919 18.4028 41.9938 18.7279C41.996 19.0915 41.996 19.4552 41.996 19.8188V19.8966L41.9962 24.385V27.6523L41.996 32.1407V32.2129C41.9961 32.5784 41.9961 32.9439 41.9938 33.3094C41.9919 33.6345 41.9881 33.9595 41.9793 34.2845C41.9626 34.9012 41.9281 35.6283 41.799 36.3455C41.6743 37.038 41.4713 37.6535 41.1786 38.2271C40.8783 38.8156 40.4884 39.351 40.0197 39.8185C39.5509 40.2862 39.0142 40.6752 38.4244 40.9748C37.8496 41.2666 37.2331 41.469 36.5395 41.5933C35.8203 41.7223 35.0913 41.7568 34.473 41.7734C34.1472 41.7822 33.8214 41.7859 33.4957 41.7879L32.4912 41.7901H32.3241L27.8252 41.7903H24.5372L20.0383 41.7901H19.8907L18.8669 41.7879C18.541 41.7859 18.2152 41.7822 17.8894 41.7734C17.2715 41.7568 16.5428 41.7224 15.8237 41.5935C15.1297 41.4691 14.5128 41.2667 13.9378 40.9746C13.348 40.6751 12.8114 40.2861 12.3427 39.8185C11.8739 39.3509 11.484 38.8154 11.1837 38.2269C10.8911 37.6534 10.6883 37.0383 10.5636 36.3463C10.4343 35.6286 10.3998 34.9013 10.3831 34.2845C10.3743 33.9595 10.3705 33.6345 10.3686 33.3095C10.3663 32.9443 10.3663 32.5792 10.3664 32.214V32.1407L10.3662 27.6523V24.385L10.3663 19.8966V19.824C10.3663 19.4587 10.3663 19.0933 10.3685 18.7279C10.3705 18.4028 10.3743 18.0778 10.3831 17.7528C10.3998 17.1361 10.4343 16.409 10.5634 15.6918C10.6881 14.9993 10.8911 14.3838 11.1838 13.8102C11.4841 13.2218 11.874 12.6864 12.3427 12.2188C12.8114 11.7511 13.3482 11.3621 13.938 11.0626C14.5127 10.7707 15.1293 10.5684 15.8229 10.444C16.5422 10.315 17.2712 10.2806 17.8893 10.2639C18.2152 10.2551 18.5409 10.2514 18.8668 10.2494L19.8634 10.2473H20.0383L24.5372 10.2471H27.8252" fill="url(#paint0_linear_90230_13311)"/>
<path d="M19.259 22.0914C19.1717 21.4226 19.5069 20.7111 19.8856 20.275C20.3074 19.766 21.0358 19.4027 21.6328 19.3733C21.7059 20.0712 21.4291 20.7542 21.0213 21.2628C20.5987 21.7573 19.9292 22.1493 19.259 22.0914ZM22.5114 25.6419C22.4967 24.1492 23.7313 23.4394 23.7895 23.3954C23.0922 22.367 22.0028 22.2511 21.6253 22.2219C20.652 22.1642 19.8246 22.7728 19.3598 22.7728C18.8948 22.7728 18.1831 22.251 17.4133 22.2652C16.4114 22.2798 15.4818 22.8448 14.9733 23.7433C13.9276 25.5407 14.6974 28.2069 15.7143 29.6708C16.2081 30.3951 16.8033 31.1924 17.5875 31.1638C18.3284 31.135 18.6189 30.6854 19.5196 30.6854C20.4195 30.6854 20.6811 31.1638 21.4655 31.1494C22.2789 31.135 22.7874 30.4247 23.2812 29.6999C23.8477 28.8741 24.0796 28.077 24.0943 28.0332C24.0796 28.0188 22.5258 27.4243 22.5114 25.6419ZM36.1776 22.8182L34.1216 29.4479H34.0821L32.0261 22.8182H30.2912L33.2225 31.068H34.9653L37.881 22.8182H36.1776ZM27.8233 20.8483H26.1809V22.817H24.9648V24.1163H26.1809V28.9118C26.1809 30.5025 26.8204 31.1324 28.4628 31.1324C28.8339 31.1324 29.2129 31.1009 29.4026 31.0614V29.7543C29.2919 29.7702 29.0076 29.7938 28.8339 29.7938C28.1392 29.7938 27.8233 29.463 27.8233 28.7465V24.1163H29.4103V22.817H27.8233V20.8483Z" fill="#F9F9F9"/>
<defs>
<linearGradient id="paint0_linear_90230_13311" x1="26.1812" y1="41.5496" x2="26.1812" y2="10.2545" gradientUnits="userSpaceOnUse">
<stop stop-color="#111111"/>
<stop offset="1" stop-color="#333333"/>
</linearGradient>
</defs>
</svg>
