<svg width="13" height="12" viewBox="0 0 13 12" fill="none" xmlns="http://www.w3.org/2000/svg">
<path d="M6.5 4.69457L10.9242 0.270363C11.2847 -0.090121 11.8692 -0.090121 12.2296 0.270363C12.5901 0.630847 12.5901 1.21531 12.2296 1.57579L7.80543 6L12.2296 10.4242C12.5901 10.7847 12.5901 11.3692 12.2296 11.7296C11.8692 12.0901 11.2847 12.0901 10.9242 11.7296L6.5 7.30543L2.07579 11.7296C1.71531 12.0901 1.13085 12.0901 0.770363 11.7296C0.409879 11.3692 0.409879 10.7847 0.770363 10.4242L5.19457 6L0.770363 1.57579C0.409879 1.21531 0.409879 0.630847 0.770363 0.270363C1.13085 -0.090121 1.71531 -0.090121 2.07579 0.270363L6.5 4.69457Z" fill="white"/>
</svg>
